<svg version="1.1" viewBox="0 0 274 219" xmlns="http://www.w3.org/2000/svg" xmlns:cc="http://creativecommons.org/ns#" xmlns:dc="http://purl.org/dc/elements/1.1/" xmlns:rdf="http://www.w3.org/1999/02/22-rdf-syntax-ns#" xmlns:xlink="http://www.w3.org/1999/xlink">
    <defs>
        <clipPath id="clipPath4628">
            <path d="m81.447 88.28 94.307-4.8225 14.468 17.391-1.6075 106.36h-108.24z" style="fill:none;stroke-width:.8706;stroke:#000" />
        </clipPath>
        <pattern id="pattern4837" width="66.88832" height="26.930299" patternTransform="translate(168.97 69.77)" patternUnits="userSpaceOnUse">
            <path d="m2.9132 0v26.93m2.9132-26.93v26.93m2.9132-26.93v26.93m2.9132-26.93v26.93m2.9132-26.93v26.93m2.9132-26.93v26.93m2.9132-26.93v26.93m2.9132-26.93v26.93m2.9132-26.93v26.93m2.9132-26.93v26.93m2.9132-26.93v26.93m2.9132-26.93v26.93m2.9132-26.93v26.93m2.9132-26.93v26.93m2.9132-26.93v26.93m2.9132-26.93v26.93m2.9132-26.93v26.93m2.9132-26.93v26.93m2.9132-26.93v26.93m2.9132-26.93v26.93m2.9132-26.93v26.93m2.9132-26.93v26.93m-64.09-24.138h66.888m-66.888 2.7926h66.888m-66.888 2.7926h66.888m-66.888 2.7926h66.888m-66.888 2.7926h66.888m-66.888 2.7926h66.888m-66.888 2.7926h66.888m-66.888 2.7926h66.888m-66.888 2.7926h66.888" style="fill:none;stroke-opacity:.86294;stroke-width:.2;stroke:#fff" />
        </pattern>
        <style>
          #ball {
            animation: ball-bouncing 1s cubic-bezier(0.25, 0.46, 0.45, 0.94) infinite alternate;
          }
          @keyframes ball-bouncing {
            from { transform: translateY(0); }
            to { transform: translateY(-12%) }
          }
        </style>
    </defs>
    <g>
        <path d="m121.44 202.93c-33.576-15.751-56.369-41.124-64.301-71.578-2.0129-7.7281-2.5707-19.719-2.5707-55.26v-45.39s28.07-7.146 47.11-11.852l34.618-8.5566 38.669 9.4863c21.268 5.2175 39.981 10.182 41.584 11.032 2.6593 1.4098 2.9123 5.2268 2.8859 43.544-0.0203 29.629-0.71844 45.251-2.37 53.043-4.5815 21.615-19.258 44.298-37.904 58.579-11.452 8.7715-38.267 22.89-43.224 22.758-1.2392-0.0328-7.7633-2.6448-14.498-5.8043z" style="fill-opacity:.97619;fill:#fff;paint-order:markers fill stroke;stroke-miterlimit:0;stroke-width:4.9969;stroke:#000" />
    </g>
    <g>
        <path d="m136.21 15.565-76.288 19.901 0.71085 63.588h153.45l-0.62461-62.461z" style="fill:#13b5ea" />
    </g>
    <g>
        <path d="m60.332 103.83 153.39-0.41641s1.2366 12.878-2.9913 26.836c-3.6349 12-8.5595 23.747-17.153 33.973-8.8618 10.545-13.7 14.338-26.387 22.781-12.702 8.4522-30.553 16.298-30.553 16.298s-13.703-4.623-27.305-13.62c-6.968-4.6089-15.6-9.4684-29.144-25.82-6.1762-7.4568-14.595-21.734-17.472-32.758-3.6723-14.072-2.381-27.272-2.381-27.272z" style="fill:#49a942" />
    </g>
    <g>
        <g transform="matrix(1.6656 0 0 1.6656 -200.14 -61.473)">
            <rect x="168.47" y="69.27" width="67.882" height="27.931" style="fill:#13b5ea;stroke-opacity:.96667;stroke-width:1.7;stroke:#fff" />
            <rect x="168.97" y="69.77" width="66.888" height="26.93" style="fill:url(#pattern4837)" />
            <rect transform="matrix(.95049 -.31077 .23594 .97177 0 0)" x="147.54" y="119.01" width="2.5841" height="28.371" style="fill:#fff" />
            <rect transform="matrix(.98487 .17329 -.24329 .96995 0 0)" x="244.51" y="27.393" width="2.5853" height="28.647" style="fill:#fff" />
            <path d="m169.35 96.361h5.4801l-5.5243-22.362z" style="fill:#13b5ea" />
            <path d="m235.49 96.348h-5.5883l5.6334-22.362z" style="fill:#13b5ea" />
        </g>
    </g>
    <g id="ball">
        <g transform="matrix(1.6656 0 0 1.6656 -199.47 -67.621)">
            <circle cx="202.01" cy="112.64" r="30.543" style="fill:#fff" />
            <path transform="matrix(1.152 .18443 -.18443 1.152 -9.9771 -54.412)" d="m209.24 120.81-11.44 1.812-5.2585-10.32 8.1904-8.1904 10.32 5.2585z" />
            <path d="m191.74 127.38-13.09 0.0599s1.5404 4.5028 6.3596 7.9409 9.9336 4.4298 9.9336 4.4298z" />
            <path d="m184.93 107.68-4.4245-12.32s-3.7307 2.9547-5.3636 8.6448c-1.6329 5.6901-0.8612 10.842-0.8612 10.842z" />
            <path d="m219.14 106.85 10.675 7.5761s1.3706-4.5574-0.54397-10.159c-1.9146-5.6016-5.4942-9.3869-5.4942-9.3869z" />
            <path d="m201.81 95.262 10.536-7.7685s-3.8996-2.7279-9.8191-2.6622c-5.9194 0.06563-10.635 2.2811-10.635 2.2811z" />
            <path d="m212.85 127.22-3.8268 12.519s4.7571-0.13508 9.4702-3.7171c4.7131-3.582 7.1777-8.172 7.1777-8.172z" />
        </g>
    </g>
</svg>